<?xml version="1.0" encoding="UTF-8" standalone="no"?>
<!DOCTYPE svg PUBLIC "-//W3C//DTD SVG 1.1//EN"
 "http://www.w3.org/Graphics/SVG/1.1/DTD/svg11.dtd">
<!-- Generated by graphviz version 2.43.0 (0)
 -->
<!-- Title: sample Pages: 1 -->
<svg width="2387px" height="482px"
 viewBox="0.00 0.00 2386.97 482.00" xmlns="http://www.w3.org/2000/svg" xmlns:xlink="http://www.w3.org/1999/xlink">
<g id="graph0" class="graph" transform="scale(1.0 1.0) rotate(0.0) translate(4.0 478.0)">
<title>sample</title>
<polygon fill="white" stroke="transparent" points="-4,4 -4,-478 2382.97,-478 2382.97,4 -4,4"/>
<!-- &lt;empty&gt;:class de.flapdoodle.embed.process.types.Archive -->
<g id="node1" class="node">
<title>&lt;empty&gt;:class de.flapdoodle.embed.process.types.Archive</title>
<ellipse fill="none" stroke="black" cx="1504.72" cy="-212" rx="74.99" ry="18"/>
<text text-anchor="middle" x="1504.72" y="-208.3" font-family="Times,serif" font-size="14.00">&lt;empty&gt;:Archive</text>
</g>
<!-- de.flapdoodle.embed.process.transitions.ImmutableExtractPackage:0 -->
<g id="node21" class="node">
<title>de.flapdoodle.embed.process.transitions.ImmutableExtractPackage:0</title>
<polygon fill="none" stroke="black" points="1769.71,-218 1668.71,-218 1668.71,-182 1769.71,-182 1769.71,-218"/>
<text text-anchor="middle" x="1719.21" y="-196.3" font-family="Times,serif" font-size="14.00">ExtractPackage</text>
</g>
<!-- &lt;empty&gt;:class de.flapdoodle.embed.process.types.Archive&#45;&gt;de.flapdoodle.embed.process.transitions.ImmutableExtractPackage:0 -->
<g id="edge1" class="edge">
<title>&lt;empty&gt;:class de.flapdoodle.embed.process.types.Archive&#45;&gt;de.flapdoodle.embed.process.transitions.ImmutableExtractPackage:0</title>
<path fill="none" stroke="black" d="M1577.66,-207.94C1603.9,-206.46 1633.28,-204.8 1658.36,-203.38"/>
<polygon fill="black" stroke="black" points="1658.67,-206.87 1668.46,-202.81 1658.28,-199.88 1658.67,-206.87"/>
</g>
<!-- &lt;empty&gt;:class de.flapdoodle.embed.process.distribution.Distribution -->
<g id="node2" class="node">
<title>&lt;empty&gt;:class de.flapdoodle.embed.process.distribution.Distribution</title>
<ellipse fill="none" stroke="black" cx="537.93" cy="-41" rx="89.08" ry="18"/>
<text text-anchor="middle" x="537.93" y="-37.3" font-family="Times,serif" font-size="14.00">&lt;empty&gt;:Distribution</text>
</g>
<!-- de.flapdoodle.embed.process.transitions.ImmutableDownloadPackage:0 -->
<g id="node19" class="node">
<title>de.flapdoodle.embed.process.transitions.ImmutableDownloadPackage:0</title>
<polygon fill="none" stroke="black" points="1287.89,-230 1169.89,-230 1169.89,-194 1287.89,-194 1287.89,-230"/>
<text text-anchor="middle" x="1228.89" y="-208.3" font-family="Times,serif" font-size="14.00">DownloadPackage</text>
</g>
<!-- &lt;empty&gt;:class de.flapdoodle.embed.process.distribution.Distribution&#45;&gt;de.flapdoodle.embed.process.transitions.ImmutableDownloadPackage:0 -->
<g id="edge2" class="edge">
<title>&lt;empty&gt;:class de.flapdoodle.embed.process.distribution.Distribution&#45;&gt;de.flapdoodle.embed.process.transitions.ImmutableDownloadPackage:0</title>
<path fill="none" stroke="black" d="M621.16,-47.41C728.47,-57.62 920.9,-82.32 1076.55,-137 1115.92,-150.83 1158.27,-172.45 1188.14,-188.94"/>
<polygon fill="black" stroke="black" points="1186.55,-192.06 1196.99,-193.87 1189.96,-185.94 1186.55,-192.06"/>
</g>
<!-- de.flapdoodle.embed.process.transitions.ImmutablePackageOfDistribution:0 -->
<g id="node23" class="node">
<title>de.flapdoodle.embed.process.transitions.ImmutablePackageOfDistribution:0</title>
<polygon fill="none" stroke="black" points="816.97,-36 675.97,-36 675.97,0 816.97,0 816.97,-36"/>
<text text-anchor="middle" x="746.47" y="-14.3" font-family="Times,serif" font-size="14.00">PackageOfDistribution</text>
</g>
<!-- &lt;empty&gt;:class de.flapdoodle.embed.process.distribution.Distribution&#45;&gt;de.flapdoodle.embed.process.transitions.ImmutablePackageOfDistribution:0 -->
<g id="edge3" class="edge">
<title>&lt;empty&gt;:class de.flapdoodle.embed.process.distribution.Distribution&#45;&gt;de.flapdoodle.embed.process.transitions.ImmutablePackageOfDistribution:0</title>
<path fill="none" stroke="black" d="M616.43,-32.37C632.54,-30.58 649.55,-28.68 665.74,-26.88"/>
<polygon fill="black" stroke="black" points="666.15,-30.35 675.71,-25.77 665.38,-23.4 666.15,-30.35"/>
</g>
<!-- &lt;empty&gt;:interface de.flapdoodle.embed.process.store.DownloadCache -->
<g id="node3" class="node">
<title>&lt;empty&gt;:interface de.flapdoodle.embed.process.store.DownloadCache</title>
<ellipse fill="none" stroke="black" cx="971.26" cy="-218" rx="104.78" ry="18"/>
<text text-anchor="middle" x="971.26" y="-214.3" font-family="Times,serif" font-size="14.00">&lt;empty&gt;:DownloadCache</text>
</g>
<!-- &lt;empty&gt;:interface de.flapdoodle.embed.process.store.DownloadCache&#45;&gt;de.flapdoodle.embed.process.transitions.ImmutableDownloadPackage:0 -->
<g id="edge4" class="edge">
<title>&lt;empty&gt;:interface de.flapdoodle.embed.process.store.DownloadCache&#45;&gt;de.flapdoodle.embed.process.transitions.ImmutableDownloadPackage:0</title>
<path fill="none" stroke="black" d="M1075.13,-215.59C1103.55,-214.92 1133.67,-214.21 1159.59,-213.6"/>
<polygon fill="black" stroke="black" points="1159.77,-217.1 1169.68,-213.37 1159.6,-210.1 1159.77,-217.1"/>
</g>
<!-- &lt;empty&gt;:interface de.flapdoodle.embed.process.types.ExecutedProcess -->
<g id="node4" class="node">
<title>&lt;empty&gt;:interface de.flapdoodle.embed.process.types.ExecutedProcess</title>
<ellipse fill="none" stroke="black" cx="2273.03" cy="-254" rx="105.88" ry="18"/>
<text text-anchor="middle" x="2273.03" y="-250.3" font-family="Times,serif" font-size="14.00">&lt;empty&gt;:ExecutedProcess</text>
</g>
<!-- &lt;empty&gt;:class de.flapdoodle.embed.process.archives.ExtractedFileSet -->
<g id="node5" class="node">
<title>&lt;empty&gt;:class de.flapdoodle.embed.process.archives.ExtractedFileSet</title>
<ellipse fill="none" stroke="black" cx="1922.65" cy="-200" rx="104.78" ry="18"/>
<text text-anchor="middle" x="1922.65" y="-196.3" font-family="Times,serif" font-size="14.00">&lt;empty&gt;:ExtractedFileSet</text>
</g>
<!-- de.flapdoodle.embed.process.transitions.ImmutableExecuter:0 -->
<g id="node20" class="node">
<title>de.flapdoodle.embed.process.transitions.ImmutableExecuter:0</title>
<polygon fill="none" stroke="black" points="2131.09,-272 2071.09,-272 2071.09,-236 2131.09,-236 2131.09,-272"/>
<text text-anchor="middle" x="2101.09" y="-250.3" font-family="Times,serif" font-size="14.00">Execute</text>
</g>
<!-- &lt;empty&gt;:class de.flapdoodle.embed.process.archives.ExtractedFileSet&#45;&gt;de.flapdoodle.embed.process.transitions.ImmutableExecuter:0 -->
<g id="edge5" class="edge">
<title>&lt;empty&gt;:class de.flapdoodle.embed.process.archives.ExtractedFileSet&#45;&gt;de.flapdoodle.embed.process.transitions.ImmutableExecuter:0</title>
<path fill="none" stroke="black" d="M1988.95,-214.02C2004.22,-217.79 2020.33,-222.18 2035.09,-227 2043.78,-229.84 2052.95,-233.33 2061.57,-236.84"/>
<polygon fill="black" stroke="black" points="2060.43,-240.16 2071.01,-240.78 2063.13,-233.7 2060.43,-240.16"/>
</g>
<!-- &lt;empty&gt;:interface de.flapdoodle.embed.process.store.ExtractedFileSetStore -->
<g id="node6" class="node">
<title>&lt;empty&gt;:interface de.flapdoodle.embed.process.store.ExtractedFileSetStore</title>
<ellipse fill="none" stroke="black" cx="1504.72" cy="-456" rx="123.48" ry="18"/>
<text text-anchor="middle" x="1504.72" y="-452.3" font-family="Times,serif" font-size="14.00">&lt;empty&gt;:ExtractedFileSetStore</text>
</g>
<!-- &lt;empty&gt;:interface de.flapdoodle.embed.process.store.ExtractedFileSetStore&#45;&gt;de.flapdoodle.embed.process.transitions.ImmutableExtractPackage:0 -->
<g id="edge6" class="edge">
<title>&lt;empty&gt;:interface de.flapdoodle.embed.process.store.ExtractedFileSetStore&#45;&gt;de.flapdoodle.embed.process.transitions.ImmutableExtractPackage:0</title>
<path fill="none" stroke="black" d="M1604.95,-445.34C1613.6,-441.24 1621.57,-435.91 1628.21,-429 1691.37,-363.22 1609.62,-300.05 1664.21,-227 1664.68,-226.37 1665.17,-225.75 1665.68,-225.15"/>
<polygon fill="black" stroke="black" points="1668.29,-227.49 1673.11,-218.06 1663.46,-222.43 1668.29,-227.49"/>
</g>
<!-- &lt;empty&gt;:class de.flapdoodle.embed.process.types.Name -->
<g id="node7" class="node">
<title>&lt;empty&gt;:class de.flapdoodle.embed.process.types.Name</title>
<ellipse fill="none" stroke="black" cx="971.26" cy="-310" rx="67.69" ry="18"/>
<text text-anchor="middle" x="971.26" y="-306.3" font-family="Times,serif" font-size="14.00">&lt;empty&gt;:Name</text>
</g>
<!-- &lt;empty&gt;:class de.flapdoodle.embed.process.types.Name&#45;&gt;de.flapdoodle.embed.process.transitions.ImmutableDownloadPackage:0 -->
<g id="edge7" class="edge">
<title>&lt;empty&gt;:class de.flapdoodle.embed.process.types.Name&#45;&gt;de.flapdoodle.embed.process.transitions.ImmutableDownloadPackage:0</title>
<path fill="none" stroke="black" d="M1018.59,-297.02C1036.81,-291.59 1057.81,-284.94 1076.55,-278 1111.97,-264.89 1151.01,-247.8 1180.57,-234.29"/>
<polygon fill="black" stroke="black" points="1182.19,-237.4 1189.82,-230.04 1179.27,-231.03 1182.19,-237.4"/>
</g>
<!-- &lt;empty&gt;:class de.flapdoodle.embed.process.types.Name&#45;&gt;de.flapdoodle.embed.process.transitions.ImmutableExtractPackage:0 -->
<g id="edge8" class="edge">
<title>&lt;empty&gt;:class de.flapdoodle.embed.process.types.Name&#45;&gt;de.flapdoodle.embed.process.transitions.ImmutableExtractPackage:0</title>
<path fill="none" stroke="black" d="M1039.1,-309.35C1159.07,-306.75 1418.07,-294.53 1628.21,-239 1643.61,-234.93 1659.76,-228.63 1674.07,-222.27"/>
<polygon fill="black" stroke="black" points="1675.54,-225.45 1683.18,-218.11 1672.63,-219.08 1675.54,-225.45"/>
</g>
<!-- de.flapdoodle.reverse.transitions.ImmutableDerive:1 -->
<g id="node29" class="node">
<title>de.flapdoodle.reverse.transitions.ImmutableDerive:1</title>
<polygon fill="none" stroke="black" points="1295.89,-420 1161.89,-420 1161.89,-384 1295.89,-384 1295.89,-420"/>
<text text-anchor="middle" x="1228.89" y="-398.3" font-family="Times,serif" font-size="14.00">create named console</text>
</g>
<!-- &lt;empty&gt;:class de.flapdoodle.embed.process.types.Name&#45;&gt;de.flapdoodle.reverse.transitions.ImmutableDerive:1 -->
<g id="edge9" class="edge">
<title>&lt;empty&gt;:class de.flapdoodle.embed.process.types.Name&#45;&gt;de.flapdoodle.reverse.transitions.ImmutableDerive:1</title>
<path fill="none" stroke="black" d="M1012.2,-324.38C1053.98,-339.41 1120.03,-363.18 1168.04,-380.46"/>
<polygon fill="black" stroke="black" points="1167.1,-383.84 1177.69,-383.93 1169.47,-377.25 1167.1,-383.84"/>
</g>
<!-- &lt;empty&gt;:interface de.flapdoodle.embed.process.config.store.Package -->
<g id="node8" class="node">
<title>&lt;empty&gt;:interface de.flapdoodle.embed.process.config.store.Package</title>
<ellipse fill="none" stroke="black" cx="971.26" cy="-45" rx="75.29" ry="18"/>
<text text-anchor="middle" x="971.26" y="-41.3" font-family="Times,serif" font-size="14.00">&lt;empty&gt;:Package</text>
</g>
<!-- &lt;empty&gt;:interface de.flapdoodle.embed.process.config.store.Package&#45;&gt;de.flapdoodle.embed.process.transitions.ImmutableDownloadPackage:0 -->
<g id="edge10" class="edge">
<title>&lt;empty&gt;:interface de.flapdoodle.embed.process.config.store.Package&#45;&gt;de.flapdoodle.embed.process.transitions.ImmutableDownloadPackage:0</title>
<path fill="none" stroke="black" d="M1035.8,-54.33C1050.64,-59.08 1065.36,-66.23 1076.55,-77 1111.5,-110.62 1077.16,-146.85 1112.55,-180 1125.49,-192.11 1142.6,-199.7 1159.67,-204.45"/>
<polygon fill="black" stroke="black" points="1159.14,-207.92 1169.69,-206.92 1160.82,-201.12 1159.14,-207.92"/>
</g>
<!-- &lt;empty&gt;:interface de.flapdoodle.embed.process.config.store.Package&#45;&gt;de.flapdoodle.embed.process.transitions.ImmutableExtractPackage:0 -->
<g id="edge11" class="edge">
<title>&lt;empty&gt;:interface de.flapdoodle.embed.process.config.store.Package&#45;&gt;de.flapdoodle.embed.process.transitions.ImmutableExtractPackage:0</title>
<path fill="none" stroke="black" d="M1019.4,-58.93C1037.35,-64.38 1057.96,-70.79 1076.55,-77 1092.69,-82.39 1096.15,-85.48 1112.55,-90 1229.81,-122.31 1261.59,-120.13 1381.23,-142 1433.37,-151.53 1576.7,-175.98 1658.66,-189.9"/>
<polygon fill="black" stroke="black" points="1658.14,-193.37 1668.58,-191.59 1659.31,-186.46 1658.14,-193.37"/>
</g>
<!-- &lt;empty&gt;:class de.flapdoodle.embed.process.types.ProcessArguments -->
<g id="node9" class="node">
<title>&lt;empty&gt;:class de.flapdoodle.embed.process.types.ProcessArguments</title>
<ellipse fill="none" stroke="black" cx="1922.65" cy="-362" rx="112.38" ry="18"/>
<text text-anchor="middle" x="1922.65" y="-358.3" font-family="Times,serif" font-size="14.00">&lt;empty&gt;:ProcessArguments</text>
</g>
<!-- &lt;empty&gt;:class de.flapdoodle.embed.process.types.ProcessArguments&#45;&gt;de.flapdoodle.embed.process.transitions.ImmutableExecuter:0 -->
<g id="edge12" class="edge">
<title>&lt;empty&gt;:class de.flapdoodle.embed.process.types.ProcessArguments&#45;&gt;de.flapdoodle.embed.process.transitions.ImmutableExecuter:0</title>
<path fill="none" stroke="black" d="M2003.62,-349.45C2014.68,-345.8 2025.51,-341.09 2035.09,-335 2056.21,-321.58 2073.54,-298.9 2084.98,-280.94"/>
<polygon fill="black" stroke="black" points="2088.18,-282.42 2090.41,-272.06 2082.2,-278.77 2088.18,-282.42"/>
</g>
<!-- &lt;empty&gt;:interface de.flapdoodle.embed.process.types.ProcessConfig -->
<g id="node10" class="node">
<title>&lt;empty&gt;:interface de.flapdoodle.embed.process.types.ProcessConfig</title>
<ellipse fill="none" stroke="black" cx="1922.65" cy="-308" rx="97.48" ry="18"/>
<text text-anchor="middle" x="1922.65" y="-304.3" font-family="Times,serif" font-size="14.00">&lt;empty&gt;:ProcessConfig</text>
</g>
<!-- &lt;empty&gt;:interface de.flapdoodle.embed.process.types.ProcessConfig&#45;&gt;de.flapdoodle.embed.process.transitions.ImmutableExecuter:0 -->
<g id="edge13" class="edge">
<title>&lt;empty&gt;:interface de.flapdoodle.embed.process.types.ProcessConfig&#45;&gt;de.flapdoodle.embed.process.transitions.ImmutableExecuter:0</title>
<path fill="none" stroke="black" d="M1987.19,-294.42C2002.98,-290.55 2019.76,-286.01 2035.09,-281 2043.78,-278.16 2052.95,-274.67 2061.57,-271.16"/>
<polygon fill="black" stroke="black" points="2063.13,-274.3 2071.01,-267.22 2060.43,-267.84 2063.13,-274.3"/>
</g>
<!-- &lt;empty&gt;:class de.flapdoodle.embed.process.types.ProcessEnv -->
<g id="node11" class="node">
<title>&lt;empty&gt;:class de.flapdoodle.embed.process.types.ProcessEnv</title>
<ellipse fill="none" stroke="black" cx="1922.65" cy="-254" rx="87.18" ry="18"/>
<text text-anchor="middle" x="1922.65" y="-250.3" font-family="Times,serif" font-size="14.00">&lt;empty&gt;:ProcessEnv</text>
</g>
<!-- &lt;empty&gt;:class de.flapdoodle.embed.process.types.ProcessEnv&#45;&gt;de.flapdoodle.embed.process.transitions.ImmutableExecuter:0 -->
<g id="edge14" class="edge">
<title>&lt;empty&gt;:class de.flapdoodle.embed.process.types.ProcessEnv&#45;&gt;de.flapdoodle.embed.process.transitions.ImmutableExecuter:0</title>
<path fill="none" stroke="black" d="M2009.8,-254C2027.71,-254 2045.74,-254 2060.92,-254"/>
<polygon fill="black" stroke="black" points="2060.94,-257.5 2070.94,-254 2060.94,-250.5 2060.94,-257.5"/>
</g>
<!-- &lt;empty&gt;:interface de.flapdoodle.embed.process.io.ProcessOutput -->
<g id="node12" class="node">
<title>&lt;empty&gt;:interface de.flapdoodle.embed.process.io.ProcessOutput</title>
<ellipse fill="none" stroke="black" cx="1504.72" cy="-402" rx="97.48" ry="18"/>
<text text-anchor="middle" x="1504.72" y="-398.3" font-family="Times,serif" font-size="14.00">&lt;empty&gt;:ProcessOutput</text>
</g>
<!-- &lt;empty&gt;:interface de.flapdoodle.embed.process.io.ProcessOutput&#45;&gt;de.flapdoodle.embed.process.transitions.ImmutableExecuter:0 -->
<g id="edge15" class="edge">
<title>&lt;empty&gt;:interface de.flapdoodle.embed.process.io.ProcessOutput&#45;&gt;de.flapdoodle.embed.process.transitions.ImmutableExecuter:0</title>
<path fill="none" stroke="black" d="M1591.19,-410.4C1721.98,-421.54 1964.08,-434.85 2035.09,-389 2071.81,-365.29 2088.33,-314.56 2095.34,-282.48"/>
<polygon fill="black" stroke="black" points="2098.83,-282.88 2097.38,-272.38 2091.97,-281.5 2098.83,-282.88"/>
</g>
<!-- &lt;empty&gt;:class de.flapdoodle.embed.process.types.ProcessWorkingDir -->
<g id="node13" class="node">
<title>&lt;empty&gt;:class de.flapdoodle.embed.process.types.ProcessWorkingDir</title>
<ellipse fill="none" stroke="black" cx="1228.89" cy="-63" rx="116.18" ry="18"/>
<text text-anchor="middle" x="1228.89" y="-59.3" font-family="Times,serif" font-size="14.00">&lt;empty&gt;:ProcessWorkingDir</text>
</g>
<!-- &lt;empty&gt;:class de.flapdoodle.embed.process.types.ProcessWorkingDir&#45;&gt;de.flapdoodle.embed.process.transitions.ImmutableExecuter:0 -->
<g id="edge16" class="edge">
<title>&lt;empty&gt;:class de.flapdoodle.embed.process.types.ProcessWorkingDir&#45;&gt;de.flapdoodle.embed.process.transitions.ImmutableExecuter:0</title>
<path fill="none" stroke="black" d="M1322.3,-73.77C1527.24,-97.9 2004.3,-155.57 2035.09,-173 2057.1,-185.46 2074.51,-208.59 2085.75,-226.96"/>
<polygon fill="black" stroke="black" points="2082.84,-228.91 2090.91,-235.78 2088.88,-225.38 2082.84,-228.91"/>
</g>
<!-- &lt;empty&gt;:interface de.flapdoodle.embed.process.io.progress.ProgressListener -->
<g id="node14" class="node">
<title>&lt;empty&gt;:interface de.flapdoodle.embed.process.io.progress.ProgressListener</title>
<ellipse fill="none" stroke="black" cx="971.26" cy="-164" rx="105.08" ry="18"/>
<text text-anchor="middle" x="971.26" y="-160.3" font-family="Times,serif" font-size="14.00">&lt;empty&gt;:ProgressListener</text>
</g>
<!-- &lt;empty&gt;:interface de.flapdoodle.embed.process.io.progress.ProgressListener&#45;&gt;de.flapdoodle.embed.process.transitions.ImmutableDownloadPackage:0 -->
<g id="edge17" class="edge">
<title>&lt;empty&gt;:interface de.flapdoodle.embed.process.io.progress.ProgressListener&#45;&gt;de.flapdoodle.embed.process.transitions.ImmutableDownloadPackage:0</title>
<path fill="none" stroke="black" d="M1042.79,-177.24C1079.26,-184.09 1123.58,-192.41 1159.71,-199.2"/>
<polygon fill="black" stroke="black" points="1159.19,-202.66 1169.67,-201.07 1160.49,-195.78 1159.19,-202.66"/>
</g>
<!-- &lt;empty&gt;:interface de.flapdoodle.embed.process.config.SupportConfig -->
<g id="node15" class="node">
<title>&lt;empty&gt;:interface de.flapdoodle.embed.process.config.SupportConfig</title>
<ellipse fill="none" stroke="black" cx="1922.65" cy="-82" rx="98.58" ry="18"/>
<text text-anchor="middle" x="1922.65" y="-78.3" font-family="Times,serif" font-size="14.00">&lt;empty&gt;:SupportConfig</text>
</g>
<!-- &lt;empty&gt;:interface de.flapdoodle.embed.process.config.SupportConfig&#45;&gt;de.flapdoodle.embed.process.transitions.ImmutableExecuter:0 -->
<g id="edge18" class="edge">
<title>&lt;empty&gt;:interface de.flapdoodle.embed.process.config.SupportConfig&#45;&gt;de.flapdoodle.embed.process.transitions.ImmutableExecuter:0</title>
<path fill="none" stroke="black" d="M1997.99,-93.72C2011.39,-98.39 2024.46,-104.9 2035.09,-114 2069.11,-143.12 2086.41,-193.88 2094.33,-225.62"/>
<polygon fill="black" stroke="black" points="2090.98,-226.65 2096.66,-235.59 2097.79,-225.06 2090.98,-226.65"/>
</g>
<!-- &lt;empty&gt;:class de.flapdoodle.embed.process.io.directories.TempDir -->
<g id="node16" class="node">
<title>&lt;empty&gt;:class de.flapdoodle.embed.process.io.directories.TempDir</title>
<ellipse fill="none" stroke="black" cx="537.93" cy="-264" rx="79.09" ry="18"/>
<text text-anchor="middle" x="537.93" y="-260.3" font-family="Times,serif" font-size="14.00">&lt;empty&gt;:TempDir</text>
</g>
<!-- de.flapdoodle.reverse.transitions.ImmutableDerive:0 -->
<g id="node18" class="node">
<title>de.flapdoodle.reverse.transitions.ImmutableDerive:0</title>
<polygon fill="none" stroke="black" points="773.47,-128 719.47,-128 719.47,-92 773.47,-92 773.47,-128"/>
<text text-anchor="middle" x="746.47" y="-106.3" font-family="Times,serif" font-size="14.00">Derive</text>
</g>
<!-- &lt;empty&gt;:class de.flapdoodle.embed.process.io.directories.TempDir&#45;&gt;de.flapdoodle.reverse.transitions.ImmutableDerive:0 -->
<g id="edge19" class="edge">
<title>&lt;empty&gt;:class de.flapdoodle.embed.process.io.directories.TempDir&#45;&gt;de.flapdoodle.reverse.transitions.ImmutableDerive:0</title>
<path fill="none" stroke="black" d="M551.75,-246.18C572.28,-218.89 615.09,-166.8 662.97,-137 677.01,-128.27 694.16,-122.06 709.18,-117.82"/>
<polygon fill="black" stroke="black" points="710.4,-121.12 719.18,-115.19 708.62,-114.35 710.4,-121.12"/>
</g>
<!-- &lt;empty&gt;:class de.flapdoodle.embed.process.io.directories.TempDir&#45;&gt;de.flapdoodle.embed.process.transitions.ImmutableDownloadPackage:0 -->
<g id="edge20" class="edge">
<title>&lt;empty&gt;:class de.flapdoodle.embed.process.io.directories.TempDir&#45;&gt;de.flapdoodle.embed.process.transitions.ImmutableDownloadPackage:0</title>
<path fill="none" stroke="black" d="M617.18,-265.61C722.15,-266.78 914.15,-265.41 1076.55,-245 1103.99,-241.55 1133.81,-235.55 1159.67,-229.6"/>
<polygon fill="black" stroke="black" points="1160.8,-232.93 1169.74,-227.24 1159.21,-226.11 1160.8,-232.93"/>
</g>
<!-- &lt;empty&gt;:class de.flapdoodle.embed.process.io.directories.TempDir&#45;&gt;de.flapdoodle.embed.process.transitions.ImmutableExtractPackage:0 -->
<g id="edge21" class="edge">
<title>&lt;empty&gt;:class de.flapdoodle.embed.process.io.directories.TempDir&#45;&gt;de.flapdoodle.embed.process.transitions.ImmutableExtractPackage:0</title>
<path fill="none" stroke="black" d="M561.16,-281.51C584.87,-299.07 624.26,-325.16 662.97,-337 793.82,-377.02 833.43,-356 970.26,-356 970.26,-356 970.26,-356 1229.89,-356 1410.55,-356 1475.53,-371.57 1628.21,-275 1650.75,-260.75 1643.74,-244.09 1664.21,-227 1665.54,-225.89 1666.92,-224.81 1668.34,-223.77"/>
<polygon fill="black" stroke="black" points="1670.45,-226.57 1676.84,-218.12 1666.58,-220.74 1670.45,-226.57"/>
</g>
<!-- de.flapdoodle.reverse.transitions.ImmutableDerive:2 -->
<g id="node32" class="node">
<title>de.flapdoodle.reverse.transitions.ImmutableDerive:2</title>
<polygon fill="none" stroke="black" points="815.97,-236 676.97,-236 676.97,-200 815.97,-200 815.97,-236"/>
<text text-anchor="middle" x="746.47" y="-214.3" font-family="Times,serif" font-size="14.00">setup DownloadCache</text>
</g>
<!-- &lt;empty&gt;:class de.flapdoodle.embed.process.io.directories.TempDir&#45;&gt;de.flapdoodle.reverse.transitions.ImmutableDerive:2 -->
<g id="edge22" class="edge">
<title>&lt;empty&gt;:class de.flapdoodle.embed.process.io.directories.TempDir&#45;&gt;de.flapdoodle.reverse.transitions.ImmutableDerive:2</title>
<path fill="none" stroke="black" d="M595.09,-251.49C617.25,-246.56 643.08,-240.8 667.02,-235.47"/>
<polygon fill="black" stroke="black" points="667.8,-238.89 676.8,-233.29 666.27,-232.05 667.8,-238.89"/>
</g>
<!-- de.flapdoodle.reverse.transitions.ImmutableDerive:3 -->
<g id="node33" class="node">
<title>de.flapdoodle.reverse.transitions.ImmutableDerive:3</title>
<polygon fill="none" stroke="black" points="829.97,-445 662.97,-445 662.97,-409 829.97,-409 829.97,-445"/>
<text text-anchor="middle" x="746.47" y="-423.3" font-family="Times,serif" font-size="14.00">setup ExtractedFileSetStore</text>
</g>
<!-- &lt;empty&gt;:class de.flapdoodle.embed.process.io.directories.TempDir&#45;&gt;de.flapdoodle.reverse.transitions.ImmutableDerive:3 -->
<g id="edge23" class="edge">
<title>&lt;empty&gt;:class de.flapdoodle.embed.process.io.directories.TempDir&#45;&gt;de.flapdoodle.reverse.transitions.ImmutableDerive:3</title>
<path fill="none" stroke="black" d="M558.18,-281.53C582.13,-303.09 624.58,-340.46 662.97,-370 677.85,-381.45 694.83,-393.37 709.51,-403.33"/>
<polygon fill="black" stroke="black" points="707.6,-406.26 717.85,-408.95 711.51,-400.46 707.6,-406.26"/>
</g>
<!-- &lt;empty&gt;:interface de.flapdoodle.embed.process.distribution.Version -->
<g id="node17" class="node">
<title>&lt;empty&gt;:interface de.flapdoodle.embed.process.distribution.Version</title>
<ellipse fill="none" stroke="black" cx="184.44" cy="-41" rx="73.39" ry="18"/>
<text text-anchor="middle" x="184.44" y="-37.3" font-family="Times,serif" font-size="14.00">&lt;empty&gt;:Version</text>
</g>
<!-- de.flapdoodle.reverse.transitions.ImmutableDerive:4 -->
<g id="node34" class="node">
<title>de.flapdoodle.reverse.transitions.ImmutableDerive:4</title>
<polygon fill="none" stroke="black" points="412.89,-59 293.89,-59 293.89,-23 412.89,-23 412.89,-59"/>
<text text-anchor="middle" x="353.39" y="-37.3" font-family="Times,serif" font-size="14.00">version + platform</text>
</g>
<!-- &lt;empty&gt;:interface de.flapdoodle.embed.process.distribution.Version&#45;&gt;de.flapdoodle.reverse.transitions.ImmutableDerive:4 -->
<g id="edge24" class="edge">
<title>&lt;empty&gt;:interface de.flapdoodle.embed.process.distribution.Version&#45;&gt;de.flapdoodle.reverse.transitions.ImmutableDerive:4</title>
<path fill="none" stroke="black" d="M258.18,-41C266.61,-41 275.2,-41 283.57,-41"/>
<polygon fill="black" stroke="black" points="283.67,-44.5 293.67,-41 283.67,-37.5 283.67,-44.5"/>
</g>
<!-- de.flapdoodle.reverse.transitions.ImmutableDerive:0&#45;&gt;&lt;empty&gt;:class de.flapdoodle.embed.process.types.ProcessWorkingDir -->
<g id="edge25" class="edge">
<title>de.flapdoodle.reverse.transitions.ImmutableDerive:0&#45;&gt;&lt;empty&gt;:class de.flapdoodle.embed.process.types.ProcessWorkingDir</title>
<path fill="none" stroke="black" d="M770.47,-91.84C804.13,-65.31 863.16,-18.96 865.97,-18 972.38,18.46 1105.38,-17.35 1176.84,-42.69"/>
<polygon fill="black" stroke="black" points="1175.91,-46.07 1186.5,-46.18 1178.29,-39.49 1175.91,-46.07"/>
</g>
<!-- de.flapdoodle.embed.process.transitions.ImmutableDownloadPackage:0&#45;&gt;&lt;empty&gt;:class de.flapdoodle.embed.process.types.Archive -->
<g id="edge26" class="edge">
<title>de.flapdoodle.embed.process.transitions.ImmutableDownloadPackage:0&#45;&gt;&lt;empty&gt;:class de.flapdoodle.embed.process.types.Archive</title>
<path fill="none" stroke="black" d="M1287.96,-212C1326.26,-212 1377.04,-212 1419.72,-212"/>
<polygon fill="black" stroke="black" points="1419.82,-215.5 1429.82,-212 1419.82,-208.5 1419.82,-215.5"/>
</g>
<!-- de.flapdoodle.embed.process.transitions.ImmutableExecuter:0&#45;&gt;&lt;empty&gt;:interface de.flapdoodle.embed.process.types.ExecutedProcess -->
<g id="edge27" class="edge">
<title>de.flapdoodle.embed.process.transitions.ImmutableExecuter:0&#45;&gt;&lt;empty&gt;:interface de.flapdoodle.embed.process.types.ExecutedProcess</title>
<path fill="none" stroke="black" d="M2131.3,-254C2138.9,-254 2147.56,-254 2156.77,-254"/>
<polygon fill="black" stroke="black" points="2156.95,-257.5 2166.95,-254 2156.95,-250.5 2156.95,-257.5"/>
</g>
<!-- de.flapdoodle.embed.process.transitions.ImmutableExtractPackage:0&#45;&gt;&lt;empty&gt;:class de.flapdoodle.embed.process.archives.ExtractedFileSet -->
<g id="edge28" class="edge">
<title>de.flapdoodle.embed.process.transitions.ImmutableExtractPackage:0&#45;&gt;&lt;empty&gt;:class de.flapdoodle.embed.process.archives.ExtractedFileSet</title>
<path fill="none" stroke="black" d="M1769.75,-200C1781.44,-200 1794.39,-200 1807.66,-200"/>
<polygon fill="black" stroke="black" points="1807.84,-203.5 1817.84,-200 1807.84,-196.5 1807.84,-203.5"/>
</g>
<!-- de.flapdoodle.embed.process.transitions.ImmutableInitTempDirectory:0 -->
<g id="node22" class="node">
<title>de.flapdoodle.embed.process.transitions.ImmutableInitTempDirectory:0</title>
<polygon fill="none" stroke="black" points="412.89,-282 293.89,-282 293.89,-246 412.89,-246 412.89,-282"/>
<text text-anchor="middle" x="353.39" y="-260.3" font-family="Times,serif" font-size="14.00">InitTempDirectory</text>
</g>
<!-- de.flapdoodle.embed.process.transitions.ImmutableInitTempDirectory:0&#45;&gt;&lt;empty&gt;:class de.flapdoodle.embed.process.io.directories.TempDir -->
<g id="edge29" class="edge">
<title>de.flapdoodle.embed.process.transitions.ImmutableInitTempDirectory:0&#45;&gt;&lt;empty&gt;:class de.flapdoodle.embed.process.io.directories.TempDir</title>
<path fill="none" stroke="black" d="M412.9,-264C424.22,-264 436.32,-264 448.36,-264"/>
<polygon fill="black" stroke="black" points="448.44,-267.5 458.44,-264 448.44,-260.5 448.44,-267.5"/>
</g>
<!-- de.flapdoodle.embed.process.transitions.ImmutablePackageOfDistribution:0&#45;&gt;&lt;empty&gt;:interface de.flapdoodle.embed.process.config.store.Package -->
<g id="edge30" class="edge">
<title>de.flapdoodle.embed.process.transitions.ImmutablePackageOfDistribution:0&#45;&gt;&lt;empty&gt;:interface de.flapdoodle.embed.process.config.store.Package</title>
<path fill="none" stroke="black" d="M817.05,-26.43C841.29,-29.37 868.61,-32.68 893.41,-35.69"/>
<polygon fill="black" stroke="black" points="893.15,-39.18 903.5,-36.91 893.99,-32.23 893.15,-39.18"/>
</g>
<!-- de.flapdoodle.reverse.transitions.ImmutableStart:0 -->
<g id="node24" class="node">
<title>de.flapdoodle.reverse.transitions.ImmutableStart:0</title>
<polygon fill="none" stroke="black" points="789.47,-328 703.47,-328 703.47,-292 789.47,-292 789.47,-328"/>
<text text-anchor="middle" x="746.47" y="-306.3" font-family="Times,serif" font-size="14.00">create Name</text>
</g>
<!-- de.flapdoodle.reverse.transitions.ImmutableStart:0&#45;&gt;&lt;empty&gt;:class de.flapdoodle.embed.process.types.Name -->
<g id="edge31" class="edge">
<title>de.flapdoodle.reverse.transitions.ImmutableStart:0&#45;&gt;&lt;empty&gt;:class de.flapdoodle.embed.process.types.Name</title>
<path fill="none" stroke="black" d="M789.64,-310C818.8,-310 858.45,-310 893.18,-310"/>
<polygon fill="black" stroke="black" points="893.3,-313.5 903.3,-310 893.3,-306.5 893.3,-313.5"/>
</g>
<!-- de.flapdoodle.reverse.transitions.ImmutableStart:1 -->
<g id="node25" class="node">
<title>de.flapdoodle.reverse.transitions.ImmutableStart:1</title>
<polygon fill="none" stroke="black" points="1774.21,-380 1664.21,-380 1664.21,-344 1774.21,-344 1774.21,-380"/>
<text text-anchor="middle" x="1719.21" y="-358.3" font-family="Times,serif" font-size="14.00">create arguments</text>
</g>
<!-- de.flapdoodle.reverse.transitions.ImmutableStart:1&#45;&gt;&lt;empty&gt;:class de.flapdoodle.embed.process.types.ProcessArguments -->
<g id="edge32" class="edge">
<title>de.flapdoodle.reverse.transitions.ImmutableStart:1&#45;&gt;&lt;empty&gt;:class de.flapdoodle.embed.process.types.ProcessArguments</title>
<path fill="none" stroke="black" d="M1774.46,-362C1782.59,-362 1791.23,-362 1800.1,-362"/>
<polygon fill="black" stroke="black" points="1800.2,-365.5 1810.2,-362 1800.2,-358.5 1800.2,-365.5"/>
</g>
<!-- de.flapdoodle.reverse.transitions.ImmutableStart:2 -->
<g id="node26" class="node">
<title>de.flapdoodle.reverse.transitions.ImmutableStart:2</title>
<polygon fill="none" stroke="black" points="1764.21,-100 1674.21,-100 1674.21,-64 1764.21,-64 1764.21,-100"/>
<text text-anchor="middle" x="1719.21" y="-78.3" font-family="Times,serif" font-size="14.00">create default</text>
</g>
<!-- de.flapdoodle.reverse.transitions.ImmutableStart:2&#45;&gt;&lt;empty&gt;:interface de.flapdoodle.embed.process.config.SupportConfig -->
<g id="edge34" class="edge">
<title>de.flapdoodle.reverse.transitions.ImmutableStart:2&#45;&gt;&lt;empty&gt;:interface de.flapdoodle.embed.process.config.SupportConfig</title>
<path fill="none" stroke="black" d="M1764.42,-82C1779.04,-82 1796,-82 1813.27,-82"/>
<polygon fill="black" stroke="black" points="1813.46,-85.5 1823.46,-82 1813.46,-78.5 1813.46,-85.5"/>
</g>
<!-- de.flapdoodle.reverse.transitions.ImmutableStart:3 -->
<g id="node27" class="node">
<title>de.flapdoodle.reverse.transitions.ImmutableStart:3</title>
<polygon fill="none" stroke="black" points="1764.21,-326 1674.21,-326 1674.21,-290 1764.21,-290 1764.21,-326"/>
<text text-anchor="middle" x="1719.21" y="-304.3" font-family="Times,serif" font-size="14.00">create default</text>
</g>
<!-- de.flapdoodle.reverse.transitions.ImmutableStart:3&#45;&gt;&lt;empty&gt;:interface de.flapdoodle.embed.process.types.ProcessConfig -->
<g id="edge33" class="edge">
<title>de.flapdoodle.reverse.transitions.ImmutableStart:3&#45;&gt;&lt;empty&gt;:interface de.flapdoodle.embed.process.types.ProcessConfig</title>
<path fill="none" stroke="black" d="M1764.42,-308C1779.42,-308 1796.9,-308 1814.65,-308"/>
<polygon fill="black" stroke="black" points="1815.1,-311.5 1825.1,-308 1815.1,-304.5 1815.1,-311.5"/>
</g>
<!-- de.flapdoodle.reverse.transitions.ImmutableStart:4 -->
<g id="node28" class="node">
<title>de.flapdoodle.reverse.transitions.ImmutableStart:4</title>
<polygon fill="none" stroke="black" points="1774.21,-272 1664.21,-272 1664.21,-236 1774.21,-236 1774.21,-272"/>
<text text-anchor="middle" x="1719.21" y="-250.3" font-family="Times,serif" font-size="14.00">create empty env</text>
</g>
<!-- de.flapdoodle.reverse.transitions.ImmutableStart:4&#45;&gt;&lt;empty&gt;:class de.flapdoodle.embed.process.types.ProcessEnv -->
<g id="edge35" class="edge">
<title>de.flapdoodle.reverse.transitions.ImmutableStart:4&#45;&gt;&lt;empty&gt;:class de.flapdoodle.embed.process.types.ProcessEnv</title>
<path fill="none" stroke="black" d="M1774.46,-254C1790.14,-254 1807.75,-254 1825.19,-254"/>
<polygon fill="black" stroke="black" points="1825.42,-257.5 1835.42,-254 1825.42,-250.5 1825.42,-257.5"/>
</g>
<!-- de.flapdoodle.reverse.transitions.ImmutableDerive:1&#45;&gt;&lt;empty&gt;:interface de.flapdoodle.embed.process.io.ProcessOutput -->
<g id="edge36" class="edge">
<title>de.flapdoodle.reverse.transitions.ImmutableDerive:1&#45;&gt;&lt;empty&gt;:interface de.flapdoodle.embed.process.io.ProcessOutput</title>
<path fill="none" stroke="black" d="M1296.18,-402C1326.3,-402 1362.71,-402 1396.56,-402"/>
<polygon fill="black" stroke="black" points="1396.97,-405.5 1406.97,-402 1396.97,-398.5 1396.97,-405.5"/>
</g>
<!-- de.flapdoodle.reverse.transitions.ImmutableStart:5 -->
<g id="node30" class="node">
<title>de.flapdoodle.reverse.transitions.ImmutableStart:5</title>
<polygon fill="none" stroke="black" points="799.97,-182 692.97,-182 692.97,-146 799.97,-146 799.97,-182"/>
<text text-anchor="middle" x="746.47" y="-160.3" font-family="Times,serif" font-size="14.00">progressListener</text>
</g>
<!-- de.flapdoodle.reverse.transitions.ImmutableStart:5&#45;&gt;&lt;empty&gt;:interface de.flapdoodle.embed.process.io.progress.ProgressListener -->
<g id="edge37" class="edge">
<title>de.flapdoodle.reverse.transitions.ImmutableStart:5&#45;&gt;&lt;empty&gt;:interface de.flapdoodle.embed.process.io.progress.ProgressListener</title>
<path fill="none" stroke="black" d="M799.99,-164C816.75,-164 836.01,-164 855.4,-164"/>
<polygon fill="black" stroke="black" points="855.55,-167.5 865.55,-164 855.55,-160.5 855.55,-167.5"/>
</g>
<!-- de.flapdoodle.reverse.transitions.ImmutableStart:6 -->
<g id="node31" class="node">
<title>de.flapdoodle.reverse.transitions.ImmutableStart:6</title>
<polygon fill="none" stroke="black" points="75,-59 0,-59 0,-23 75,-23 75,-59"/>
<text text-anchor="middle" x="37.5" y="-37.3" font-family="Times,serif" font-size="14.00">set version</text>
</g>
<!-- de.flapdoodle.reverse.transitions.ImmutableStart:6&#45;&gt;&lt;empty&gt;:interface de.flapdoodle.embed.process.distribution.Version -->
<g id="edge38" class="edge">
<title>de.flapdoodle.reverse.transitions.ImmutableStart:6&#45;&gt;&lt;empty&gt;:interface de.flapdoodle.embed.process.distribution.Version</title>
<path fill="none" stroke="black" d="M75.08,-41C83.06,-41 91.82,-41 100.79,-41"/>
<polygon fill="black" stroke="black" points="100.98,-44.5 110.98,-41 100.98,-37.5 100.98,-44.5"/>
</g>
<!-- de.flapdoodle.reverse.transitions.ImmutableDerive:2&#45;&gt;&lt;empty&gt;:interface de.flapdoodle.embed.process.store.DownloadCache -->
<g id="edge39" class="edge">
<title>de.flapdoodle.reverse.transitions.ImmutableDerive:2&#45;&gt;&lt;empty&gt;:interface de.flapdoodle.embed.process.store.DownloadCache</title>
<path fill="none" stroke="black" d="M816.13,-218C828.99,-218 842.75,-218 856.55,-218"/>
<polygon fill="black" stroke="black" points="856.6,-221.5 866.6,-218 856.6,-214.5 856.6,-221.5"/>
</g>
<!-- de.flapdoodle.reverse.transitions.ImmutableDerive:3&#45;&gt;&lt;empty&gt;:interface de.flapdoodle.embed.process.store.ExtractedFileSetStore -->
<g id="edge40" class="edge">
<title>de.flapdoodle.reverse.transitions.ImmutableDerive:3&#45;&gt;&lt;empty&gt;:interface de.flapdoodle.embed.process.store.ExtractedFileSetStore</title>
<path fill="none" stroke="black" d="M830.2,-430.17C961.65,-435.21 1219.21,-445.09 1374.95,-451.06"/>
<polygon fill="black" stroke="black" points="1374.93,-454.56 1385.06,-451.45 1375.2,-447.57 1374.93,-454.56"/>
</g>
<!-- de.flapdoodle.reverse.transitions.ImmutableDerive:4&#45;&gt;&lt;empty&gt;:class de.flapdoodle.embed.process.distribution.Distribution -->
<g id="edge41" class="edge">
<title>de.flapdoodle.reverse.transitions.ImmutableDerive:4&#45;&gt;&lt;empty&gt;:class de.flapdoodle.embed.process.distribution.Distribution</title>
<path fill="none" stroke="black" d="M412.9,-41C421.23,-41 429.99,-41 438.83,-41"/>
<polygon fill="black" stroke="black" points="438.83,-44.5 448.83,-41 438.83,-37.5 438.83,-44.5"/>
</g>
</g>
</svg>
